<svg xmlns="http://www.w3.org/2000/svg" viewBox="0 0 817.74 155.19" role="img" aria-labelledby="logo-title">
  <title id="logo-title">PickleballFlow</title>
  <path fill="#004d85" d="M137.79 36.11c-6-5.5-28.36-25.91-36.08-31.64a25.55 25.55 0 0 0-15-4.47 31.25 31.25 0 0 0-21.72 9C52.3 21.07 35.87 43.24 28.38 53.86s-1.91 23 1.76 30 5.2 14.52-1 22.7c-4.74 6.27-20.74 25.36-28 33.95a5.14 5.14 0 0 0 1 7.5l8.73 6.21a5.14 5.14 0 0 0 6.95-.93c5.55-6.78 17.45-21.28 25.09-30.3 6.94-8.18 14.37-9.94 20.44-9.94a51 51 0 0 1 7.54.7c3.67.52 9.05 1.92 14.25 1.92 3.89 0 7.68-.78 10.59-3.3.72-.63 1.69-1.53 2.86-2.67a37 37 0 0 1-.68-7.79c-2.7 2.74-4.86 4.84-6.11 5.92-1.43 1.24-3.61 1.84-6.66 1.84a54.6 54.6 0 0 1-9.58-1.2c-1.35-.26-2.63-.49-3.82-.66l-.4-.06a54 54 0 0 0-8-.7 30.65 30.65 0 0 0-16.82 4.81l-9-7.75c4.46-10.6-.28-19.68-2-23-3.76-7.19-7.4-16.4-2.18-23.8 3.53-5 21.85-30.65 35.85-44a25.12 25.12 0 0 1 17.58-7.32 23.2 23.2 0 0 1 6.3.87 15.8 15.8 0 0 1 5.09 2.41c7.15 5.31 27.94 24.26 34.77 30.49l.84.77c3.27 3 4.49 12.93-1 21.73-.62 1-1.45 2.16-2.46 3.5a37 37 0 0 1 7.49-.22l.06-.09c6.5-10.46 5.96-23.84-.07-29.34"/>
  <path fill="#23cabb" d="M132.7 62.23c-.62 1-1.45 2.16-2.46 3.5a37.17 37.17 0 0 0-32.31 36.16c-2.7 2.74-4.86 4.84-6.11 5.92-1.43 1.24-3.61 1.84-6.66 1.84a54.6 54.6 0 0 1-9.58-1.2c-1.35-.26-2.63-.49-3.82-.66l-.4-.06a54 54 0 0 0-8-.7 30.65 30.65 0 0 0-16.82 4.81l-9-7.75c4.46-10.6-.28-19.68-2-23-3.76-7.19-7.4-16.4-2.18-23.8 3.53-5 21.85-30.65 35.85-44a25.12 25.12 0 0 1 17.58-7.32 23.2 23.2 0 0 1 6.3.87 15.8 15.8 0 0 1 5.09 2.41c7.15 5.31 27.94 24.26 34.77 30.49l.84.77c3.27 3.01 4.44 12.96-1.09 21.72"/>
  <path fill="#f85849" d="M165.75 100.23c-.06-.79-.15-1.58-.28-2.38a31.3 31.3 0 0 0-1.14-4.76 31.69 31.69 0 0 0-.88-2.38 31 31 0 0 0-1.55-3.18c-.18-.31-.36-.62-.55-.93a24 24 0 0 0-1.39-2.09l-.58-.77c-.19-.25-.39-.49-.59-.74-.39-.49-.81-1-1.24-1.42-.21-.23-.43-.45-.65-.67l-.59-.58-.17-.16-.56-.52c-.52-.47-1.06-.91-1.61-1.34-.32-.25-.64-.48-1-.71l-1-.68c-.34-.22-.67-.43-1-.63l-1-.59c-.34-.18-.68-.37-1-.54-.7-.36-1.43-.69-2.16-1l-1-.39c-.48-.19-1-.35-1.46-.5q-.45-.15-.9-.27c-.34-.1-.7-.19-1.05-.27s-.73-.18-1.1-.25l-.64-.12c-.4-.08-.8-.15-1.2-.2-.56-.08-1.12-.15-1.69-.19-.37 0-.75-.07-1.13-.08h-.51a29 29 0 0 0-3.38.07c-.64 0-1.27.12-1.91.21l-.94.16-.48.09-.44.08c-.36.07-.71.15-1.07.24l-.84.22c-.36.09-.71.2-1.07.31l-.34.1a31.69 31.69 0 0 0-2.38.88c-.38.16-.94.41-1.39.63-.27.12-.52.24-.78.38s-.68.35-1 .54-.63.36-.93.55-.71.44-1.06.67-.69.47-1 .72l-.77.58-.74.59c-.49.39-1 .81-1.42 1.24-.23.21-.45.43-.67.65l-.58.59-.16.17-.54.59c-.41.46-.8.92-1.18 1.4l-.41.53a29 29 0 0 0-1.67 2.46c-.13.2-.25.4-.37.61s-.41.72-.6 1.08-.23.45-.34.67-.35.72-.51 1.08-.29.64-.42 1-.17.4-.24.6c-.2.49-.37 1-.53 1.49-.11.31-.2.61-.29.92l-.22.79q-.26 1-.45 1.95a30.3 30.3 0 0 0-.39 9.38c0 .48.12 1 .2 1.45a30 30 0 0 0 .79 3.56c.1.36.21.71.33 1.07s.27.81.42 1.21.3.79.46 1.17.41.94.63 1.39c.12.27.24.52.38.78s.35.68.54 1 .36.63.55.93.44.71.67 1.06.47.69.72 1l.42.57a4 4 0 0 0 .28.36l.47.58c.4.49.81 1 1.24 1.42.21.23.43.45.65.67s.39.39.59.58a31 31 0 0 0 2.54 2.18l.79.58c.64.46 1.31.9 2 1.31l1 .58.72.39c.46.23.92.46 1.39.67.63.29 1.28.56 1.93.81l.39.14 1 .34c.32.11.65.21 1 .3l.8.22c.78.2 1.58.38 2.38.51l.88.14a24 24 0 0 0 2.66.27 30 30 0 0 0 4.43-.06c.3 0 .59 0 .88-.09.51-.06 1-.13 1.52-.22.74-.12 1.49-.28 2.23-.46s1.49-.39 2.22-.63a31.69 31.69 0 0 0 2.38-.88 31 31 0 0 0 3.18-1.55l.93-.55a24 24 0 0 0 2.09-1.39l.57-.42.36-.28.58-.47c.49-.4 1-.81 1.42-1.24.23-.21.45-.43.67-.65s.39-.39.58-.59.39-.41.57-.61c.51-.57 1-1.16 1.47-1.76l.54-.72c.53-.72 1-1.46 1.48-2.23.21-.34.4-.68.6-1l.42-.79c.41-.79.78-1.59 1.12-2.42.15-.37.29-.74.43-1.11s.29-.82.42-1.23.21-.69.31-1 .21-.76.3-1.15.16-.67.22-1c0-.18.08-.37.11-.56.09-.45.16-.9.22-1.35s.14-1.06.18-1.59a3.4 3.4 0 0 0 0-.46c0-.24 0-.48.05-.72s0-.31 0-.47a30 30 0 0 0-.17-3.47m-51.87.38c-1.95-.64-2.7-3.74-1.66-6.93s3.46-5.26 5.42-4.63 2.7 3.74 1.66 6.93-3.46 5.25-5.42 4.61Zm12.73 21.51c-1.21 1.67-4.39 1.42-7.1-.55s-3.94-4.92-2.73-6.59 4.39-1.41 7.11.56 3.93 4.9 2.72 6.56Zm9.88-44c3.35 0 6.07 1.67 6.07 3.73s-2.72 3.72-6.07 3.72-6.08-1.67-6.08-3.72 2.72-3.74 6.08-3.74Zm-1 31.13a5.28 5.28 0 1 1 5.28-5.28 5.27 5.27 0 0 1-5.32 5.26Zm12.83 14c-2.71 2-5.89 2.22-7.1.56s0-4.61 2.72-6.59 5.9-2.22 7.11-.55-.05 4.56-2.77 6.56Zm8.54-20.06c-2 .53-4.31-1.65-5.19-4.89s0-6.3 2-6.84 4.31 1.65 5.19 4.88-.06 6.29-2.04 6.83Z"/>
  <path fill="#004d85" d="M242.63 74.05a17 17 0 0 1-7.06 6.69 24.84 24.84 0 0 1-11.82 2.54h-8.69v20.69h-14V46.35h22.74a25.8 25.8 0 0 1 11.65 2.38 16.26 16.26 0 0 1 7.14 6.57 19 19 0 0 1 2.38 9.6 18.55 18.55 0 0 1-2.34 9.15m-14-3.74a8.43 8.43 0 0 0 0-10.83q-2-2-6-2h-7.57v14.77h7.63c2.67.03 4.67-.62 5.98-1.94ZM253.25 51.23a7 7 0 0 1-2.34-5.37 7.14 7.14 0 0 1 2.34-5.46 8.52 8.52 0 0 1 6-2.18 8.4 8.4 0 0 1 5.95 2.18 7.14 7.14 0 0 1 2.34 5.46 7 7 0 0 1-2.34 5.37 8.4 8.4 0 0 1-5.95 2.18 8.52 8.52 0 0 1-6-2.18m13 6.94v45.8h-14v-45.8ZM276.56 68.59a20.3 20.3 0 0 1 8.13-8.21 24.36 24.36 0 0 1 11.94-2.87q8.61 0 14.4 4.52a21.33 21.33 0 0 1 7.6 12.72h-14.94q-1.89-5.25-7.31-5.26a7.35 7.35 0 0 0-6.15 3q-2.3 3-2.3 8.58t2.3 8.57a7.35 7.35 0 0 0 6.15 3q5.42 0 7.31-5.25h14.94a21.54 21.54 0 0 1-7.64 12.64 22.48 22.48 0 0 1-14.36 4.59 24.25 24.25 0 0 1-11.94-2.87 20.2 20.2 0 0 1-8.13-8.21 28.19 28.19 0 0 1 0-24.95M354.06 103.97l-13.95-19.21v19.21h-14.05V43.23h14V76.8l13.87-18.63h17.32l-19 23 19.2 22.82ZM390.85 43.23v60.74h-14V43.23ZM443.95 84.23h-31.76a9.93 9.93 0 0 0 2.71 6.65 8.26 8.26 0 0 0 6 2.29c3.5 0 5.93-1.47 7.3-4.43h14.94a20.66 20.66 0 0 1-4.14 8.13 21 21 0 0 1-7.51 5.66 24.1 24.1 0 0 1-10.1 2 24.5 24.5 0 0 1-12-2.87 20.47 20.47 0 0 1-8.21-8.21 25.3 25.3 0 0 1-3-12.47 25.7 25.7 0 0 1 2.91-12.48 20.2 20.2 0 0 1 8.17-8.21 24.8 24.8 0 0 1 12.06-2.87 24.5 24.5 0 0 1 11.82 2.79 20 20 0 0 1 8.08 8 23.93 23.93 0 0 1 2.92 12 34 34 0 0 1-.19 4.02m-14.12-7.14a7.87 7.87 0 0 0-2.46-6.16 8.83 8.83 0 0 0-6.15-2.21 8.7 8.7 0 0 0-6 2.17 9.9 9.9 0 0 0-3 6.2ZM471.28 59.48a17.7 17.7 0 0 1 8.45-2 19 19 0 0 1 10.26 2.87 20 20 0 0 1 7.27 8.21 30.3 30.3 0 0 1 0 24.83 20.13 20.13 0 0 1-7.27 8.29 18.76 18.76 0 0 1-10.26 2.91 17.65 17.65 0 0 1-8.45-1.93 14.74 14.74 0 0 1-5.66-5.13v6.41h-14V43.23h14v21.42a14.43 14.43 0 0 1 5.66-5.17m11.45 13.26a9.62 9.62 0 0 0-7.18-3 9.45 9.45 0 0 0-7.1 3c-1.94 2-2.91 4.79-2.91 8.29a11.5 11.5 0 0 0 2.91 8.29 9.82 9.82 0 0 0 14.24 0 11.5 11.5 0 0 0 3-8.33q-.05-5.26-2.96-8.25M507.19 68.59a20 20 0 0 1 7.26-8.21 19 19 0 0 1 10.26-2.87 17.6 17.6 0 0 1 8.49 2 14.55 14.55 0 0 1 5.63 5.17V58.2h14V104h-14v-6.49a15.07 15.07 0 0 1-5.71 5.17 17.5 17.5 0 0 1-8.49 2 18.66 18.66 0 0 1-10.18-2.91 20.2 20.2 0 0 1-7.26-8.29 30.2 30.2 0 0 1 0-24.83Zm28.72 4.19a9.86 9.86 0 0 0-14.2 0q-2.91 3-2.91 8.24a11.6 11.6 0 0 0 2.91 8.33 9.78 9.78 0 0 0 14.2 0 13.23 13.23 0 0 0 0-16.58ZM577.06 43.23v60.74h-14V43.23ZM601.28 43.23v60.74h-14V43.23Z"/>
  <path fill="#24c8ba" d="m657.98 41.59-2.13 12h-25.41l-2.31 13.42h19l-2.07 11.54h-19l-4.44 25.42h-15.26l11-62.38ZM681.79 38.23l-11.64 65.76h-15.19l11.64-65.76ZM692.45 102.1a18.45 18.45 0 0 1-7.68-7.29 21.5 21.5 0 0 1-2.71-10.93 30.2 30.2 0 0 1 4-15.37 28.7 28.7 0 0 1 11-10.88 31.3 31.3 0 0 1 15.64-4 24.4 24.4 0 0 1 11.42 2.62 19 19 0 0 1 7.78 7.34 21.3 21.3 0 0 1 2.75 10.93 29.9 29.9 0 0 1-4 15.41 28.9 28.9 0 0 1-11.11 10.8 31.9 31.9 0 0 1-15.68 3.91 24.4 24.4 0 0 1-11.41-2.54m20.22-12.75a15.2 15.2 0 0 0 4.62-5.87 17.8 17.8 0 0 0 1.64-7.5c0-3-.8-5.25-2.4-6.85a8.2 8.2 0 0 0-6-2.39 10.56 10.56 0 0 0-6.71 2.26 15 15 0 0 0-4.48 5.91 18.8 18.8 0 0 0-1.6 7.64 9.2 9.2 0 0 0 2.32 6.68 8 8 0 0 0 5.95 2.35 10.8 10.8 0 0 0 6.66-2.23M817.74 54.38l-22.22 49.59h-16.79L776.6 71.8l-13.77 32.17h-16.71l-4.71-49.59h15.2l.71 35.46 14.66-35.46h16.08l2.22 35.46 13.15-35.46Z"/>
</svg>
